<?xml version="1.0" encoding="UTF-8" standalone="no"?>
<!DOCTYPE svg PUBLIC "-//W3C//DTD SVG 1.1//EN"
 "http://www.w3.org/Graphics/SVG/1.1/DTD/svg11.dtd">
<!-- Generated by graphviz version 7.0.5 (20221223.1930)
 -->
<!-- Title: g Pages: 1 -->
<svg width="636pt" height="221pt"
 viewBox="0.00 0.00 636.00 221.00" xmlns="http://www.w3.org/2000/svg" xmlns:xlink="http://www.w3.org/1999/xlink">
<g id="graph0" class="graph" transform="scale(1 1) rotate(0) translate(4 217)">
<title>g</title>
<polygon fill="white" stroke="none" points="-4,4 -4,-217 632,-217 632,4 -4,4"/>
<g id="clust1" class="cluster">
<title>isarmstrong</title>
<polygon fill="none" stroke="black" points="8,-8 8,-205 620,-205 620,-8 8,-8"/>
<text text-anchor="middle" x="314" y="-189.8" font-family="Helvetica,Arial,sans-serif" font-size="14.00">isarmstrong</text>
</g>
<!-- .TL1 -->
<g id="node1" class="node">
<title>.TL1</title>
<polygon fill="none" stroke="black" points="16,-104.5 16,-173.5 70,-173.5 70,-104.5 16,-104.5"/>
<text text-anchor="middle" x="43" y="-158.3" font-family="Helvetica,Arial,sans-serif" font-size="14.00">.TL1</text>
<polyline fill="none" stroke="black" points="16,-150.5 70,-150.5"/>
<text text-anchor="middle" x="43" y="-135.3" font-family="Helvetica,Arial,sans-serif" font-size="14.00">pushl</text>
<polyline fill="none" stroke="black" points="16,-127.5 70,-127.5"/>
<text text-anchor="middle" x="43" y="-112.3" font-family="Helvetica,Arial,sans-serif" font-size="14.00"> </text>
</g>
<!-- .L8 -->
<g id="node2" class="node">
<title>.L8</title>
<polygon fill="none" stroke="black" points="106,-92.5 106,-161.5 160,-161.5 160,-92.5 106,-92.5"/>
<text text-anchor="middle" x="133" y="-146.3" font-family="Helvetica,Arial,sans-serif" font-size="14.00">.L8</text>
<polyline fill="none" stroke="black" points="106,-138.5 160,-138.5"/>
<text text-anchor="middle" x="133" y="-123.3" font-family="Helvetica,Arial,sans-serif" font-size="14.00">cmpl</text>
<polyline fill="none" stroke="black" points="106,-115.5 160,-115.5"/>
<text text-anchor="middle" x="133" y="-100.3" font-family="Helvetica,Arial,sans-serif" font-size="14.00"> </text>
</g>
<!-- .TL1&#45;&gt;.L8 -->
<g id="1" class="edge">
<title>.TL1:f1&#45;&gt;.L8:f0</title>
<path fill="none" stroke="black" d="M70,-139C82.16,-139 86.82,-144.81 94.88,-147.98"/>
<polygon fill="black" stroke="black" points="94.05,-151.39 104.51,-149.73 95.3,-144.5 94.05,-151.39"/>
</g>
<!-- .L10 -->
<g id="node3" class="node">
<title>.L10</title>
<polygon fill="none" stroke="black" points="197,-104.5 197,-173.5 251,-173.5 251,-104.5 197,-104.5"/>
<text text-anchor="middle" x="224" y="-158.3" font-family="Helvetica,Arial,sans-serif" font-size="14.00">.L10</text>
<polyline fill="none" stroke="black" points="197,-150.5 251,-150.5"/>
<text text-anchor="middle" x="224" y="-135.3" font-family="Helvetica,Arial,sans-serif" font-size="14.00">movl</text>
<polyline fill="none" stroke="black" points="197,-127.5 251,-127.5"/>
<text text-anchor="middle" x="224" y="-112.3" font-family="Helvetica,Arial,sans-serif" font-size="14.00"> </text>
</g>
<!-- .L8&#45;&gt;.L10 -->
<g id="1" class="edge">
<title>.L8:f1&#45;&gt;.L10:f0</title>
<path fill="none" stroke="black" d="M160,-127C177.61,-127 175.95,-148.79 185.43,-157.99"/>
<polygon fill="black" stroke="black" points="183.99,-161.18 194.59,-161.46 186.48,-154.64 183.99,-161.18"/>
</g>
<!-- .L9 -->
<g id="node4" class="node">
<title>.L9</title>
<polygon fill="none" stroke="black" points="196,-16.5 196,-85.5 252,-85.5 252,-16.5 196,-16.5"/>
<text text-anchor="middle" x="224" y="-70.3" font-family="Helvetica,Arial,sans-serif" font-size="14.00">.L9</text>
<polyline fill="none" stroke="black" points="196,-62.5 252,-62.5"/>
<text text-anchor="middle" x="224" y="-47.3" font-family="Helvetica,Arial,sans-serif" font-size="14.00">empty</text>
<polyline fill="none" stroke="black" points="196,-39.5 252,-39.5"/>
<text text-anchor="middle" x="224" y="-24.3" font-family="Helvetica,Arial,sans-serif" font-size="14.00"> </text>
</g>
<!-- .L8&#45;&gt;.L9 -->
<g id="1" class="edge">
<title>.L8:f2&#45;&gt;.L9:f0</title>
<path fill="none" stroke="black" d="M160,-104C176.11,-104 176.38,-86.05 185.31,-77.92"/>
<polygon fill="black" stroke="black" points="186.4,-81.25 194.58,-74.52 183.99,-74.68 186.4,-81.25"/>
</g>
<!-- .L10&#45;&gt;.L8 -->
<g id="1" class="edge">
<title>.L10:f1&#45;&gt;.L8:f0</title>
<path fill="none" stroke="black" d="M196,-139C183.84,-139 179.18,-144.81 171.12,-147.98"/>
<polygon fill="black" stroke="black" points="170.7,-144.5 161.49,-149.73 171.95,-151.39 170.7,-144.5"/>
</g>
<!-- .L11 -->
<g id="node5" class="node">
<title>.L11</title>
<polygon fill="none" stroke="black" points="288,-83.5 288,-152.5 342,-152.5 342,-83.5 288,-83.5"/>
<text text-anchor="middle" x="315" y="-137.3" font-family="Helvetica,Arial,sans-serif" font-size="14.00">.L11</text>
<polyline fill="none" stroke="black" points="288,-129.5 342,-129.5"/>
<text text-anchor="middle" x="315" y="-114.3" font-family="Helvetica,Arial,sans-serif" font-size="14.00">cmpl</text>
<polyline fill="none" stroke="black" points="288,-106.5 342,-106.5"/>
<text text-anchor="middle" x="315" y="-91.3" font-family="Helvetica,Arial,sans-serif" font-size="14.00"> </text>
</g>
<!-- .L9&#45;&gt;.L11 -->
<g id="1" class="edge">
<title>.L9:f1&#45;&gt;.L11:f0</title>
<path fill="none" stroke="black" d="M252,-51C290.37,-51 254.78,-122.39 276.97,-138.01"/>
<polygon fill="black" stroke="black" points="275.97,-141.36 286.54,-140.6 277.81,-134.61 275.97,-141.36"/>
</g>
<!-- .L13 -->
<g id="node6" class="node">
<title>.L13</title>
<polygon fill="none" stroke="black" points="378,-104.5 378,-173.5 432,-173.5 432,-104.5 378,-104.5"/>
<text text-anchor="middle" x="405" y="-158.3" font-family="Helvetica,Arial,sans-serif" font-size="14.00">.L13</text>
<polyline fill="none" stroke="black" points="378,-150.5 432,-150.5"/>
<text text-anchor="middle" x="405" y="-135.3" font-family="Helvetica,Arial,sans-serif" font-size="14.00">subl</text>
<polyline fill="none" stroke="black" points="378,-127.5 432,-127.5"/>
<text text-anchor="middle" x="405" y="-112.3" font-family="Helvetica,Arial,sans-serif" font-size="14.00"> </text>
</g>
<!-- .L11&#45;&gt;.L13 -->
<g id="1" class="edge">
<title>.L11:f1&#45;&gt;.L13:f0</title>
<path fill="none" stroke="black" d="M342,-118C362.53,-118 356.78,-147.05 367.46,-157.94"/>
<polygon fill="black" stroke="black" points="366,-161.13 376.59,-161.46 368.51,-154.59 366,-161.13"/>
</g>
<!-- .L12 -->
<g id="node7" class="node">
<title>.L12</title>
<polygon fill="none" stroke="black" points="378,-16.5 378,-85.5 432,-85.5 432,-16.5 378,-16.5"/>
<text text-anchor="middle" x="405" y="-70.3" font-family="Helvetica,Arial,sans-serif" font-size="14.00">.L12</text>
<polyline fill="none" stroke="black" points="378,-62.5 432,-62.5"/>
<text text-anchor="middle" x="405" y="-47.3" font-family="Helvetica,Arial,sans-serif" font-size="14.00">movl</text>
<polyline fill="none" stroke="black" points="378,-39.5 432,-39.5"/>
<text text-anchor="middle" x="405" y="-24.3" font-family="Helvetica,Arial,sans-serif" font-size="14.00"> </text>
</g>
<!-- .L11&#45;&gt;.L12 -->
<g id="1" class="edge">
<title>.L11:f2&#45;&gt;.L12:f0</title>
<path fill="none" stroke="black" d="M342,-95C355.89,-95 358.78,-83.19 367.17,-77.28"/>
<polygon fill="black" stroke="black" points="368,-80.69 376.55,-74.44 365.97,-73.99 368,-80.69"/>
</g>
<!-- .L13&#45;&gt;.L11 -->
<g id="1" class="edge">
<title>.L13:f1&#45;&gt;.L11:f0</title>
<path fill="none" stroke="black" d="M378,-139C366.61,-139 361.32,-140.01 353.45,-140.6"/>
<polygon fill="black" stroke="black" points="353.38,-137.1 343.51,-140.95 353.63,-144.09 353.38,-137.1"/>
</g>
<!-- .L14 -->
<g id="node8" class="node">
<title>.L14</title>
<polygon fill="none" stroke="black" points="468,-104.5 468,-173.5 522,-173.5 522,-104.5 468,-104.5"/>
<text text-anchor="middle" x="495" y="-158.3" font-family="Helvetica,Arial,sans-serif" font-size="14.00">.L14</text>
<polyline fill="none" stroke="black" points="468,-150.5 522,-150.5"/>
<text text-anchor="middle" x="495" y="-135.3" font-family="Helvetica,Arial,sans-serif" font-size="14.00">movl</text>
<polyline fill="none" stroke="black" points="468,-127.5 522,-127.5"/>
<text text-anchor="middle" x="495" y="-112.3" font-family="Helvetica,Arial,sans-serif" font-size="14.00"> </text>
</g>
<!-- .L12&#45;&gt;.L14 -->
<g id="1" class="edge">
<title>.L12:f1&#45;&gt;.L14:f0</title>
<path fill="none" stroke="black" d="M432,-51C479.41,-51 426.89,-143.74 457.13,-159.68"/>
<polygon fill="black" stroke="black" points="456.01,-163.02 466.52,-161.68 457.47,-156.18 456.01,-163.02"/>
</g>
<!-- .TL4 -->
<g id="node9" class="node">
<title>.TL4</title>
<polygon fill="none" stroke="black" points="468,-16.5 468,-85.5 522,-85.5 522,-16.5 468,-16.5"/>
<text text-anchor="middle" x="495" y="-70.3" font-family="Helvetica,Arial,sans-serif" font-size="14.00">.TL4</text>
<polyline fill="none" stroke="black" points="468,-62.5 522,-62.5"/>
<text text-anchor="middle" x="495" y="-47.3" font-family="Helvetica,Arial,sans-serif" font-size="14.00">movl</text>
<polyline fill="none" stroke="black" points="468,-39.5 522,-39.5"/>
<text text-anchor="middle" x="495" y="-24.3" font-family="Helvetica,Arial,sans-serif" font-size="14.00"> </text>
</g>
<!-- .L12&#45;&gt;.TL4 -->
<g id="1" class="edge">
<title>.L12:f2&#45;&gt;.TL4:f0</title>
<path fill="none" stroke="black" d="M432,-28C453.3,-28 446.41,-58.95 457.58,-70.08"/>
<polygon fill="black" stroke="black" points="455.99,-73.22 466.58,-73.47 458.46,-66.67 455.99,-73.22"/>
</g>
<!-- .L7 -->
<g id="node10" class="node">
<title>.L7</title>
<polygon fill="none" stroke="black" points="558,-48.5 558,-117.5 612,-117.5 612,-48.5 558,-48.5"/>
<text text-anchor="middle" x="585" y="-102.3" font-family="Helvetica,Arial,sans-serif" font-size="14.00">.L7</text>
<polyline fill="none" stroke="black" points="558,-94.5 612,-94.5"/>
<text text-anchor="middle" x="585" y="-79.3" font-family="Helvetica,Arial,sans-serif" font-size="14.00">movl</text>
<polyline fill="none" stroke="black" points="558,-71.5 612,-71.5"/>
<text text-anchor="middle" x="585" y="-56.3" font-family="Helvetica,Arial,sans-serif" font-size="14.00"> </text>
</g>
<!-- .L14&#45;&gt;.L7 -->
<g id="1" class="edge">
<title>.L14:f1&#45;&gt;.L7:f0</title>
<path fill="none" stroke="black" d="M522,-139C538.96,-139 538.14,-118.86 547.33,-110.05"/>
<polygon fill="black" stroke="black" points="548.47,-113.35 556.58,-106.54 545.99,-106.81 548.47,-113.35"/>
</g>
<!-- .TL4&#45;&gt;.L7 -->
<g id="1" class="edge">
<title>.TL4:f1&#45;&gt;.L7:f0</title>
<path fill="none" stroke="black" d="M522,-51C546.42,-51 534.75,-89.43 547.33,-102.04"/>
<polygon fill="black" stroke="black" points="545.99,-105.28 556.58,-105.47 548.42,-98.71 545.99,-105.28"/>
</g>
</g>
</svg>
