<?xml version="1.0" encoding="UTF-8" standalone="no"?>
<!DOCTYPE svg PUBLIC "-//W3C//DTD SVG 1.1//EN"
 "http://www.w3.org/Graphics/SVG/1.1/DTD/svg11.dtd">
<!-- Generated by graphviz version 7.0.5 (20221223.1930)
 -->
<!-- Title: g Pages: 1 -->
<svg width="544pt" height="856pt"
 viewBox="0.00 0.00 544.00 856.00" xmlns="http://www.w3.org/2000/svg" xmlns:xlink="http://www.w3.org/1999/xlink">
<g id="graph0" class="graph" transform="scale(1 1) rotate(0) translate(4 852)">
<title>g</title>
<polygon fill="white" stroke="none" points="-4,4 -4,-852 540,-852 540,4 -4,4"/>
<g id="clust2" class="cluster">
<title>order(int)</title>
<polygon fill="none" stroke="black" points="8,-233 8,-430 258,-430 258,-233 8,-233"/>
<text text-anchor="middle" x="133" y="-414.8" font-family="Helvetica,Arial,sans-serif" font-size="14.00">order(int)</text>
</g>
<g id="clust4" class="cluster">
<title>main</title>
<polygon fill="none" stroke="black" points="8,-643 8,-840 438,-840 438,-643 8,-643"/>
<text text-anchor="middle" x="223" y="-824.8" font-family="Helvetica,Arial,sans-serif" font-size="14.00">main</text>
</g>
<g id="clust1" class="cluster">
<title>power(int, unsigned int)</title>
<polygon fill="none" stroke="black" points="8,-8 8,-225 438,-225 438,-8 8,-8"/>
<text text-anchor="middle" x="223" y="-209.8" font-family="Helvetica,Arial,sans-serif" font-size="14.00">power(int, unsigned int)</text>
</g>
<g id="clust3" class="cluster">
<title>isArmstrong(long)</title>
<polygon fill="none" stroke="black" points="8,-438 8,-635 528,-635 528,-438 8,-438"/>
<text text-anchor="middle" x="268" y="-619.8" font-family="Helvetica,Arial,sans-serif" font-size="14.00">isArmstrong(long)</text>
</g>
<!-- .TL1 -->
<g id="node1" class="node">
<title>.TL1</title>
<polygon fill="none" stroke="black" points="16,-60.5 16,-129.5 70,-129.5 70,-60.5 16,-60.5"/>
<text text-anchor="middle" x="43" y="-114.3" font-family="Helvetica,Arial,sans-serif" font-size="14.00">.TL1</text>
<polyline fill="none" stroke="black" points="16,-106.5 70,-106.5"/>
<text text-anchor="middle" x="43" y="-91.3" font-family="Helvetica,Arial,sans-serif" font-size="14.00">pushl</text>
<polyline fill="none" stroke="black" points="16,-83.5 70,-83.5"/>
<text text-anchor="middle" x="43" y="-68.3" font-family="Helvetica,Arial,sans-serif" font-size="14.00"> </text>
</g>
<!-- .L2 -->
<g id="node2" class="node">
<title>.L2</title>
<polygon fill="none" stroke="black" points="106,-82.5 106,-151.5 160,-151.5 160,-82.5 106,-82.5"/>
<text text-anchor="middle" x="133" y="-136.3" font-family="Helvetica,Arial,sans-serif" font-size="14.00">.L2</text>
<polyline fill="none" stroke="black" points="106,-128.5 160,-128.5"/>
<text text-anchor="middle" x="133" y="-113.3" font-family="Helvetica,Arial,sans-serif" font-size="14.00">movl</text>
<polyline fill="none" stroke="black" points="106,-105.5 160,-105.5"/>
<text text-anchor="middle" x="133" y="-90.3" font-family="Helvetica,Arial,sans-serif" font-size="14.00"> </text>
</g>
<!-- .TL1&#45;&gt;.L2 -->
<g id="1" class="edge">
<title>.TL1:f1&#45;&gt;.L2:f0</title>
<path fill="none" stroke="black" d="M70,-95C90.81,-95 84.66,-124.71 95.36,-135.85"/>
<polygon fill="black" stroke="black" points="94,-139.07 104.59,-139.45 96.55,-132.55 94,-139.07"/>
</g>
<!-- .TL2 -->
<g id="node3" class="node">
<title>.TL2</title>
<polygon fill="none" stroke="black" points="286,-16.5 286,-85.5 340,-85.5 340,-16.5 286,-16.5"/>
<text text-anchor="middle" x="313" y="-70.3" font-family="Helvetica,Arial,sans-serif" font-size="14.00">.TL2</text>
<polyline fill="none" stroke="black" points="286,-62.5 340,-62.5"/>
<text text-anchor="middle" x="313" y="-47.3" font-family="Helvetica,Arial,sans-serif" font-size="14.00">movl</text>
<polyline fill="none" stroke="black" points="286,-39.5 340,-39.5"/>
<text text-anchor="middle" x="313" y="-24.3" font-family="Helvetica,Arial,sans-serif" font-size="14.00"> </text>
</g>
<!-- .TL1&#45;&gt;.TL2 -->
<g id="1" class="edge">
<title>.TL1:f2&#45;&gt;.TL2:f0</title>
<path fill="none" stroke="black" d="M70,-72C155.92,-72 183.3,15.45 258,-27 274.68,-36.48 267.33,-60.26 275.43,-69.87"/>
<polygon fill="black" stroke="black" points="274,-73.07 284.59,-73.45 276.55,-66.55 274,-73.07"/>
</g>
<!-- .L4 -->
<g id="node5" class="node">
<title>.L4</title>
<polygon fill="none" stroke="black" points="196,-124.5 196,-193.5 250,-193.5 250,-124.5 196,-124.5"/>
<text text-anchor="middle" x="223" y="-178.3" font-family="Helvetica,Arial,sans-serif" font-size="14.00">.L4</text>
<polyline fill="none" stroke="black" points="196,-170.5 250,-170.5"/>
<text text-anchor="middle" x="223" y="-155.3" font-family="Helvetica,Arial,sans-serif" font-size="14.00">movl</text>
<polyline fill="none" stroke="black" points="196,-147.5 250,-147.5"/>
<text text-anchor="middle" x="223" y="-132.3" font-family="Helvetica,Arial,sans-serif" font-size="14.00"> </text>
</g>
<!-- .L2&#45;&gt;.L4 -->
<g id="1" class="edge">
<title>.L2:f1&#45;&gt;.L4:f0</title>
<path fill="none" stroke="black" d="M160,-117C188.38,-117 170.18,-165 185.46,-178.51"/>
<polygon fill="black" stroke="black" points="183.97,-181.7 194.56,-181.52 186.17,-175.05 183.97,-181.7"/>
</g>
<!-- .TL3 -->
<g id="node6" class="node">
<title>.TL3</title>
<polygon fill="none" stroke="black" points="196,-36.5 196,-105.5 250,-105.5 250,-36.5 196,-36.5"/>
<text text-anchor="middle" x="223" y="-90.3" font-family="Helvetica,Arial,sans-serif" font-size="14.00">.TL3</text>
<polyline fill="none" stroke="black" points="196,-82.5 250,-82.5"/>
<text text-anchor="middle" x="223" y="-67.3" font-family="Helvetica,Arial,sans-serif" font-size="14.00">movl</text>
<polyline fill="none" stroke="black" points="196,-59.5 250,-59.5"/>
<text text-anchor="middle" x="223" y="-44.3" font-family="Helvetica,Arial,sans-serif" font-size="14.00"> </text>
</g>
<!-- .L2&#45;&gt;.TL3 -->
<g id="1" class="edge">
<title>.L2:f2&#45;&gt;.TL3:f0</title>
<path fill="none" stroke="black" d="M160,-94C171.38,-94 176.68,-94 184.55,-94"/>
<polygon fill="black" stroke="black" points="184.49,-97.5 194.49,-94 184.49,-90.5 184.49,-97.5"/>
</g>
<!-- .L3 -->
<g id="node4" class="node">
<title>.L3</title>
<polygon fill="none" stroke="black" points="376,-48.5 376,-117.5 430,-117.5 430,-48.5 376,-48.5"/>
<text text-anchor="middle" x="403" y="-102.3" font-family="Helvetica,Arial,sans-serif" font-size="14.00">.L3</text>
<polyline fill="none" stroke="black" points="376,-94.5 430,-94.5"/>
<text text-anchor="middle" x="403" y="-79.3" font-family="Helvetica,Arial,sans-serif" font-size="14.00">leave</text>
<polyline fill="none" stroke="black" points="376,-71.5 430,-71.5"/>
<text text-anchor="middle" x="403" y="-56.3" font-family="Helvetica,Arial,sans-serif" font-size="14.00"> </text>
</g>
<!-- .TL2&#45;&gt;.L3 -->
<g id="1" class="edge">
<title>.TL2:f1&#45;&gt;.L3:f0</title>
<path fill="none" stroke="black" d="M340,-51C364.42,-51 352.75,-89.43 365.33,-102.04"/>
<polygon fill="black" stroke="black" points="363.99,-105.28 374.58,-105.47 366.42,-98.71 363.99,-105.28"/>
</g>
<!-- .L5 -->
<g id="node7" class="node">
<title>.L5</title>
<polygon fill="none" stroke="black" points="286,-104.5 286,-173.5 340,-173.5 340,-104.5 286,-104.5"/>
<text text-anchor="middle" x="313" y="-158.3" font-family="Helvetica,Arial,sans-serif" font-size="14.00">.L5</text>
<polyline fill="none" stroke="black" points="286,-150.5 340,-150.5"/>
<text text-anchor="middle" x="313" y="-135.3" font-family="Helvetica,Arial,sans-serif" font-size="14.00">movl</text>
<polyline fill="none" stroke="black" points="286,-127.5 340,-127.5"/>
<text text-anchor="middle" x="313" y="-112.3" font-family="Helvetica,Arial,sans-serif" font-size="14.00"> </text>
</g>
<!-- .L4&#45;&gt;.L5 -->
<g id="1" class="edge">
<title>.L4:f1&#45;&gt;.L5:f0</title>
<path fill="none" stroke="black" d="M251,-159C261.98,-159 267.1,-160.48 274.61,-161.36"/>
<polygon fill="black" stroke="black" points="274.31,-164.85 284.49,-161.92 274.7,-157.86 274.31,-164.85"/>
</g>
<!-- .TL3&#45;&gt;.L5 -->
<g id="1" class="edge">
<title>.TL3:f1&#45;&gt;.L5:f0</title>
<path fill="none" stroke="black" d="M251,-71C289.59,-71 252.83,-143.18 274.94,-158.97"/>
<polygon fill="black" stroke="black" points="273.97,-162.34 284.54,-161.6 275.82,-155.58 273.97,-162.34"/>
</g>
<!-- .L5&#45;&gt;.L3 -->
<g id="1" class="edge">
<title>.L5:f1&#45;&gt;.L3:f0</title>
<path fill="none" stroke="black" d="M340,-139C356.96,-139 356.14,-118.86 365.33,-110.05"/>
<polygon fill="black" stroke="black" points="366.47,-113.35 374.58,-106.54 363.99,-106.81 366.47,-113.35"/>
</g>
<!-- .TL4 -->
<g id="node8" class="node">
<title>.TL4</title>
<polygon fill="none" stroke="black" points="16,-329.5 16,-398.5 70,-398.5 70,-329.5 16,-329.5"/>
<text text-anchor="middle" x="43" y="-383.3" font-family="Helvetica,Arial,sans-serif" font-size="14.00">.TL4</text>
<polyline fill="none" stroke="black" points="16,-375.5 70,-375.5"/>
<text text-anchor="middle" x="43" y="-360.3" font-family="Helvetica,Arial,sans-serif" font-size="14.00">pushl</text>
<polyline fill="none" stroke="black" points="16,-352.5 70,-352.5"/>
<text text-anchor="middle" x="43" y="-337.3" font-family="Helvetica,Arial,sans-serif" font-size="14.00"> </text>
</g>
<!-- .L7 -->
<g id="node9" class="node">
<title>.L7</title>
<polygon fill="none" stroke="black" points="106,-317.5 106,-386.5 160,-386.5 160,-317.5 106,-317.5"/>
<text text-anchor="middle" x="133" y="-371.3" font-family="Helvetica,Arial,sans-serif" font-size="14.00">.L7</text>
<polyline fill="none" stroke="black" points="106,-363.5 160,-363.5"/>
<text text-anchor="middle" x="133" y="-348.3" font-family="Helvetica,Arial,sans-serif" font-size="14.00">cmpl</text>
<polyline fill="none" stroke="black" points="106,-340.5 160,-340.5"/>
<text text-anchor="middle" x="133" y="-325.3" font-family="Helvetica,Arial,sans-serif" font-size="14.00"> </text>
</g>
<!-- .TL4&#45;&gt;.L7 -->
<g id="1" class="edge">
<title>.TL4:f1&#45;&gt;.L7:f0</title>
<path fill="none" stroke="black" d="M70,-364C82.16,-364 86.82,-369.81 94.88,-372.98"/>
<polygon fill="black" stroke="black" points="94.05,-376.39 104.51,-374.73 95.3,-369.5 94.05,-376.39"/>
</g>
<!-- .L8 -->
<g id="node10" class="node">
<title>.L8</title>
<polygon fill="none" stroke="black" points="196,-329.5 196,-398.5 250,-398.5 250,-329.5 196,-329.5"/>
<text text-anchor="middle" x="223" y="-383.3" font-family="Helvetica,Arial,sans-serif" font-size="14.00">.L8</text>
<polyline fill="none" stroke="black" points="196,-375.5 250,-375.5"/>
<text text-anchor="middle" x="223" y="-360.3" font-family="Helvetica,Arial,sans-serif" font-size="14.00">addl</text>
<polyline fill="none" stroke="black" points="196,-352.5 250,-352.5"/>
<text text-anchor="middle" x="223" y="-337.3" font-family="Helvetica,Arial,sans-serif" font-size="14.00"> </text>
</g>
<!-- .L7&#45;&gt;.L8 -->
<g id="1" class="edge">
<title>.L7:f1&#45;&gt;.L8:f0</title>
<path fill="none" stroke="black" d="M160,-352C177.61,-352 175.95,-373.79 185.43,-382.99"/>
<polygon fill="black" stroke="black" points="183.99,-386.18 194.59,-386.46 186.48,-379.64 183.99,-386.18"/>
</g>
<!-- .TL5 -->
<g id="node11" class="node">
<title>.TL5</title>
<polygon fill="none" stroke="black" points="196,-241.5 196,-310.5 250,-310.5 250,-241.5 196,-241.5"/>
<text text-anchor="middle" x="223" y="-295.3" font-family="Helvetica,Arial,sans-serif" font-size="14.00">.TL5</text>
<polyline fill="none" stroke="black" points="196,-287.5 250,-287.5"/>
<text text-anchor="middle" x="223" y="-272.3" font-family="Helvetica,Arial,sans-serif" font-size="14.00">movl</text>
<polyline fill="none" stroke="black" points="196,-264.5 250,-264.5"/>
<text text-anchor="middle" x="223" y="-249.3" font-family="Helvetica,Arial,sans-serif" font-size="14.00"> </text>
</g>
<!-- .L7&#45;&gt;.TL5 -->
<g id="1" class="edge">
<title>.L7:f2&#45;&gt;.TL5:f0</title>
<path fill="none" stroke="black" d="M160,-329C176.11,-329 176.38,-311.05 185.31,-302.92"/>
<polygon fill="black" stroke="black" points="186.4,-306.25 194.58,-299.52 183.99,-299.68 186.4,-306.25"/>
</g>
<!-- .L8&#45;&gt;.L7 -->
<g id="1" class="edge">
<title>.L8:f1&#45;&gt;.L7:f0</title>
<path fill="none" stroke="black" d="M196,-364C183.84,-364 179.18,-369.81 171.12,-372.98"/>
<polygon fill="black" stroke="black" points="170.7,-369.5 161.49,-374.73 171.95,-376.39 170.7,-369.5"/>
</g>
<!-- .TL6 -->
<g id="node12" class="node">
<title>.TL6</title>
<polygon fill="none" stroke="black" points="16,-534.5 16,-603.5 70,-603.5 70,-534.5 16,-534.5"/>
<text text-anchor="middle" x="43" y="-588.3" font-family="Helvetica,Arial,sans-serif" font-size="14.00">.TL6</text>
<polyline fill="none" stroke="black" points="16,-580.5 70,-580.5"/>
<text text-anchor="middle" x="43" y="-565.3" font-family="Helvetica,Arial,sans-serif" font-size="14.00">pushl</text>
<polyline fill="none" stroke="black" points="16,-557.5 70,-557.5"/>
<text text-anchor="middle" x="43" y="-542.3" font-family="Helvetica,Arial,sans-serif" font-size="14.00"> </text>
</g>
<!-- .L11 -->
<g id="node13" class="node">
<title>.L11</title>
<polygon fill="none" stroke="black" points="106,-522.5 106,-591.5 160,-591.5 160,-522.5 106,-522.5"/>
<text text-anchor="middle" x="133" y="-576.3" font-family="Helvetica,Arial,sans-serif" font-size="14.00">.L11</text>
<polyline fill="none" stroke="black" points="106,-568.5 160,-568.5"/>
<text text-anchor="middle" x="133" y="-553.3" font-family="Helvetica,Arial,sans-serif" font-size="14.00">cmpl</text>
<polyline fill="none" stroke="black" points="106,-545.5 160,-545.5"/>
<text text-anchor="middle" x="133" y="-530.3" font-family="Helvetica,Arial,sans-serif" font-size="14.00"> </text>
</g>
<!-- .TL6&#45;&gt;.L11 -->
<g id="1" class="edge">
<title>.TL6:f1&#45;&gt;.L11:f0</title>
<path fill="none" stroke="black" d="M70,-569C82.16,-569 86.82,-574.81 94.88,-577.98"/>
<polygon fill="black" stroke="black" points="94.05,-581.39 104.51,-579.73 95.3,-574.5 94.05,-581.39"/>
</g>
<!-- .L12 -->
<g id="node14" class="node">
<title>.L12</title>
<polygon fill="none" stroke="black" points="196,-534.5 196,-603.5 250,-603.5 250,-534.5 196,-534.5"/>
<text text-anchor="middle" x="223" y="-588.3" font-family="Helvetica,Arial,sans-serif" font-size="14.00">.L12</text>
<polyline fill="none" stroke="black" points="196,-580.5 250,-580.5"/>
<text text-anchor="middle" x="223" y="-565.3" font-family="Helvetica,Arial,sans-serif" font-size="14.00">movl</text>
<polyline fill="none" stroke="black" points="196,-557.5 250,-557.5"/>
<text text-anchor="middle" x="223" y="-542.3" font-family="Helvetica,Arial,sans-serif" font-size="14.00"> </text>
</g>
<!-- .L11&#45;&gt;.L12 -->
<g id="1" class="edge">
<title>.L11:f1&#45;&gt;.L12:f0</title>
<path fill="none" stroke="black" d="M160,-557C177.61,-557 175.95,-578.79 185.43,-587.99"/>
<polygon fill="black" stroke="black" points="183.99,-591.18 194.59,-591.46 186.48,-584.64 183.99,-591.18"/>
</g>
<!-- .L13 -->
<g id="node15" class="node">
<title>.L13</title>
<polygon fill="none" stroke="black" points="196,-446.5 196,-515.5 250,-515.5 250,-446.5 196,-446.5"/>
<text text-anchor="middle" x="223" y="-500.3" font-family="Helvetica,Arial,sans-serif" font-size="14.00">.L13</text>
<polyline fill="none" stroke="black" points="196,-492.5 250,-492.5"/>
<text text-anchor="middle" x="223" y="-477.3" font-family="Helvetica,Arial,sans-serif" font-size="14.00">cmpl</text>
<polyline fill="none" stroke="black" points="196,-469.5 250,-469.5"/>
<text text-anchor="middle" x="223" y="-454.3" font-family="Helvetica,Arial,sans-serif" font-size="14.00"> </text>
</g>
<!-- .L11&#45;&gt;.L13 -->
<g id="1" class="edge">
<title>.L11:f2&#45;&gt;.L13:f0</title>
<path fill="none" stroke="black" d="M160,-534C176.11,-534 176.38,-516.05 185.31,-507.92"/>
<polygon fill="black" stroke="black" points="186.4,-511.25 194.58,-504.52 183.99,-504.68 186.4,-511.25"/>
</g>
<!-- .L12&#45;&gt;.L11 -->
<g id="1" class="edge">
<title>.L12:f1&#45;&gt;.L11:f0</title>
<path fill="none" stroke="black" d="M196,-569C183.84,-569 179.18,-574.81 171.12,-577.98"/>
<polygon fill="black" stroke="black" points="170.7,-574.5 161.49,-579.73 171.95,-581.39 170.7,-574.5"/>
</g>
<!-- .L14 -->
<g id="node16" class="node">
<title>.L14</title>
<polygon fill="none" stroke="black" points="286,-534.5 286,-603.5 340,-603.5 340,-534.5 286,-534.5"/>
<text text-anchor="middle" x="313" y="-588.3" font-family="Helvetica,Arial,sans-serif" font-size="14.00">.L14</text>
<polyline fill="none" stroke="black" points="286,-580.5 340,-580.5"/>
<text text-anchor="middle" x="313" y="-565.3" font-family="Helvetica,Arial,sans-serif" font-size="14.00">movl</text>
<polyline fill="none" stroke="black" points="286,-557.5 340,-557.5"/>
<text text-anchor="middle" x="313" y="-542.3" font-family="Helvetica,Arial,sans-serif" font-size="14.00"> </text>
</g>
<!-- .L13&#45;&gt;.L14 -->
<g id="1" class="edge">
<title>.L13:f1&#45;&gt;.L14:f0</title>
<path fill="none" stroke="black" d="M251,-481C298.08,-481 245.6,-572.95 274.79,-589.47"/>
<polygon fill="black" stroke="black" points="274,-592.88 284.52,-591.67 275.54,-586.05 274,-592.88"/>
</g>
<!-- .TL8 -->
<g id="node17" class="node">
<title>.TL8</title>
<polygon fill="none" stroke="black" points="286,-446.5 286,-515.5 340,-515.5 340,-446.5 286,-446.5"/>
<text text-anchor="middle" x="313" y="-500.3" font-family="Helvetica,Arial,sans-serif" font-size="14.00">.TL8</text>
<polyline fill="none" stroke="black" points="286,-492.5 340,-492.5"/>
<text text-anchor="middle" x="313" y="-477.3" font-family="Helvetica,Arial,sans-serif" font-size="14.00">movl</text>
<polyline fill="none" stroke="black" points="286,-469.5 340,-469.5"/>
<text text-anchor="middle" x="313" y="-454.3" font-family="Helvetica,Arial,sans-serif" font-size="14.00"> </text>
</g>
<!-- .L13&#45;&gt;.TL8 -->
<g id="1" class="edge">
<title>.L13:f2&#45;&gt;.TL8:f0</title>
<path fill="none" stroke="black" d="M251,-458C271.87,-458 264.97,-488.37 275.43,-499.75"/>
<polygon fill="black" stroke="black" points="274.01,-502.96 284.6,-503.44 276.62,-496.46 274.01,-502.96"/>
</g>
<!-- .L14&#45;&gt;.L13 -->
<g id="1" class="edge">
<title>.L14:f1&#45;&gt;.L13:f0</title>
<path fill="none" stroke="black" d="M286,-569C258.06,-569 276.12,-521.86 261.83,-507.87"/>
<polygon fill="black" stroke="black" points="263.02,-504.58 252.43,-504.51 260.66,-511.17 263.02,-504.58"/>
</g>
<!-- .L15 -->
<g id="node18" class="node">
<title>.L15</title>
<polygon fill="none" stroke="black" points="376,-534.5 376,-603.5 430,-603.5 430,-534.5 376,-534.5"/>
<text text-anchor="middle" x="403" y="-588.3" font-family="Helvetica,Arial,sans-serif" font-size="14.00">.L15</text>
<polyline fill="none" stroke="black" points="376,-580.5 430,-580.5"/>
<text text-anchor="middle" x="403" y="-565.3" font-family="Helvetica,Arial,sans-serif" font-size="14.00">movl</text>
<polyline fill="none" stroke="black" points="376,-557.5 430,-557.5"/>
<text text-anchor="middle" x="403" y="-542.3" font-family="Helvetica,Arial,sans-serif" font-size="14.00"> </text>
</g>
<!-- .TL8&#45;&gt;.L15 -->
<g id="1" class="edge">
<title>.TL8:f1&#45;&gt;.L15:f0</title>
<path fill="none" stroke="black" d="M340,-481C387.41,-481 334.89,-573.74 365.13,-589.68"/>
<polygon fill="black" stroke="black" points="364.01,-593.02 374.52,-591.68 365.47,-586.18 364.01,-593.02"/>
</g>
<!-- .TL9 -->
<g id="node19" class="node">
<title>.TL9</title>
<polygon fill="none" stroke="black" points="376,-446.5 376,-515.5 430,-515.5 430,-446.5 376,-446.5"/>
<text text-anchor="middle" x="403" y="-500.3" font-family="Helvetica,Arial,sans-serif" font-size="14.00">.TL9</text>
<polyline fill="none" stroke="black" points="376,-492.5 430,-492.5"/>
<text text-anchor="middle" x="403" y="-477.3" font-family="Helvetica,Arial,sans-serif" font-size="14.00">movl</text>
<polyline fill="none" stroke="black" points="376,-469.5 430,-469.5"/>
<text text-anchor="middle" x="403" y="-454.3" font-family="Helvetica,Arial,sans-serif" font-size="14.00"> </text>
</g>
<!-- .TL8&#45;&gt;.TL9 -->
<g id="1" class="edge">
<title>.TL8:f2&#45;&gt;.TL9:f0</title>
<path fill="none" stroke="black" d="M340,-458C361.3,-458 354.41,-488.95 365.58,-500.08"/>
<polygon fill="black" stroke="black" points="363.99,-503.22 374.58,-503.47 366.46,-496.67 363.99,-503.22"/>
</g>
<!-- .L16 -->
<g id="node20" class="node">
<title>.L16</title>
<polygon fill="none" stroke="black" points="466,-478.5 466,-547.5 520,-547.5 520,-478.5 466,-478.5"/>
<text text-anchor="middle" x="493" y="-532.3" font-family="Helvetica,Arial,sans-serif" font-size="14.00">.L16</text>
<polyline fill="none" stroke="black" points="466,-524.5 520,-524.5"/>
<text text-anchor="middle" x="493" y="-509.3" font-family="Helvetica,Arial,sans-serif" font-size="14.00">movl</text>
<polyline fill="none" stroke="black" points="466,-501.5 520,-501.5"/>
<text text-anchor="middle" x="493" y="-486.3" font-family="Helvetica,Arial,sans-serif" font-size="14.00"> </text>
</g>
<!-- .L15&#45;&gt;.L16 -->
<g id="1" class="edge">
<title>.L15:f1&#45;&gt;.L16:f0</title>
<path fill="none" stroke="black" d="M431,-569C447.7,-569 446.62,-548.86 455.54,-540.05"/>
<polygon fill="black" stroke="black" points="456.53,-543.42 464.59,-536.55 454,-536.89 456.53,-543.42"/>
</g>
<!-- .TL9&#45;&gt;.L16 -->
<g id="1" class="edge">
<title>.TL9:f1&#45;&gt;.L16:f0</title>
<path fill="none" stroke="black" d="M431,-481C455.22,-481 443.16,-519.43 455.47,-532.04"/>
<polygon fill="black" stroke="black" points="453.99,-535.23 464.58,-535.47 456.45,-528.67 453.99,-535.23"/>
</g>
<!-- .TL10 -->
<g id="node21" class="node">
<title>.TL10</title>
<polygon fill="none" stroke="black" points="16,-718.5 16,-787.5 70,-787.5 70,-718.5 16,-718.5"/>
<text text-anchor="middle" x="43" y="-772.3" font-family="Helvetica,Arial,sans-serif" font-size="14.00">.TL10</text>
<polyline fill="none" stroke="black" points="16,-764.5 70,-764.5"/>
<text text-anchor="middle" x="43" y="-749.3" font-family="Helvetica,Arial,sans-serif" font-size="14.00">leal</text>
<polyline fill="none" stroke="black" points="16,-741.5 70,-741.5"/>
<text text-anchor="middle" x="43" y="-726.3" font-family="Helvetica,Arial,sans-serif" font-size="14.00"> </text>
</g>
<!-- .L18 -->
<g id="node22" class="node">
<title>.L18</title>
<polygon fill="none" stroke="black" points="106,-739.5 106,-808.5 160,-808.5 160,-739.5 106,-739.5"/>
<text text-anchor="middle" x="133" y="-793.3" font-family="Helvetica,Arial,sans-serif" font-size="14.00">.L18</text>
<polyline fill="none" stroke="black" points="106,-785.5 160,-785.5"/>
<text text-anchor="middle" x="133" y="-770.3" font-family="Helvetica,Arial,sans-serif" font-size="14.00">subl</text>
<polyline fill="none" stroke="black" points="106,-762.5 160,-762.5"/>
<text text-anchor="middle" x="133" y="-747.3" font-family="Helvetica,Arial,sans-serif" font-size="14.00"> </text>
</g>
<!-- .TL10&#45;&gt;.L18 -->
<g id="1" class="edge">
<title>.TL10:f1&#45;&gt;.L18:f0</title>
<path fill="none" stroke="black" d="M70,-753C90.53,-753 84.78,-782.05 95.46,-792.94"/>
<polygon fill="black" stroke="black" points="94,-796.13 104.59,-796.46 96.51,-789.59 94,-796.13"/>
</g>
<!-- .TL11 -->
<g id="node23" class="node">
<title>.TL11</title>
<polygon fill="none" stroke="black" points="106,-651.5 106,-720.5 160,-720.5 160,-651.5 106,-651.5"/>
<text text-anchor="middle" x="133" y="-705.3" font-family="Helvetica,Arial,sans-serif" font-size="14.00">.TL11</text>
<polyline fill="none" stroke="black" points="106,-697.5 160,-697.5"/>
<text text-anchor="middle" x="133" y="-682.3" font-family="Helvetica,Arial,sans-serif" font-size="14.00">subl</text>
<polyline fill="none" stroke="black" points="106,-674.5 160,-674.5"/>
<text text-anchor="middle" x="133" y="-659.3" font-family="Helvetica,Arial,sans-serif" font-size="14.00"> </text>
</g>
<!-- .TL10&#45;&gt;.TL11 -->
<g id="1" class="edge">
<title>.TL10:f2&#45;&gt;.TL11:f0</title>
<path fill="none" stroke="black" d="M70,-730C83.89,-730 86.78,-718.19 95.17,-712.28"/>
<polygon fill="black" stroke="black" points="96,-715.69 104.55,-709.44 93.97,-708.99 96,-715.69"/>
</g>
<!-- .L19 -->
<g id="node24" class="node">
<title>.L19</title>
<polygon fill="none" stroke="black" points="196,-706.5 196,-775.5 250,-775.5 250,-706.5 196,-706.5"/>
<text text-anchor="middle" x="223" y="-760.3" font-family="Helvetica,Arial,sans-serif" font-size="14.00">.L19</text>
<polyline fill="none" stroke="black" points="196,-752.5 250,-752.5"/>
<text text-anchor="middle" x="223" y="-737.3" font-family="Helvetica,Arial,sans-serif" font-size="14.00">movl</text>
<polyline fill="none" stroke="black" points="196,-729.5 250,-729.5"/>
<text text-anchor="middle" x="223" y="-714.3" font-family="Helvetica,Arial,sans-serif" font-size="14.00"> </text>
</g>
<!-- .L18&#45;&gt;.L19 -->
<g id="1" class="edge">
<title>.L18:f1&#45;&gt;.L19:f0</title>
<path fill="none" stroke="black" d="M160,-774C171.94,-774 176.73,-768.83 184.65,-765.93"/>
<polygon fill="black" stroke="black" points="185.24,-769.38 194.51,-764.25 184.06,-762.48 185.24,-769.38"/>
</g>
<!-- .TL11&#45;&gt;.L19 -->
<g id="1" class="edge">
<title>.TL11:f1&#45;&gt;.L19:f0</title>
<path fill="none" stroke="black" d="M160,-686C193.41,-686 166.68,-745.72 185.06,-760.65"/>
<polygon fill="black" stroke="black" points="183.97,-763.97 194.55,-763.56 186.02,-757.28 183.97,-763.97"/>
</g>
<!-- .L20 -->
<g id="node25" class="node">
<title>.L20</title>
<polygon fill="none" stroke="black" points="286,-739.5 286,-808.5 340,-808.5 340,-739.5 286,-739.5"/>
<text text-anchor="middle" x="313" y="-793.3" font-family="Helvetica,Arial,sans-serif" font-size="14.00">.L20</text>
<polyline fill="none" stroke="black" points="286,-785.5 340,-785.5"/>
<text text-anchor="middle" x="313" y="-770.3" font-family="Helvetica,Arial,sans-serif" font-size="14.00">subl</text>
<polyline fill="none" stroke="black" points="286,-762.5 340,-762.5"/>
<text text-anchor="middle" x="313" y="-747.3" font-family="Helvetica,Arial,sans-serif" font-size="14.00"> </text>
</g>
<!-- .L19&#45;&gt;.L20 -->
<g id="1" class="edge">
<title>.L19:f1&#45;&gt;.L20:f0</title>
<path fill="none" stroke="black" d="M251,-741C275.53,-741 263,-780.13 275.37,-792.97"/>
<polygon fill="black" stroke="black" points="273.99,-796.19 284.58,-796.46 276.47,-789.65 273.99,-796.19"/>
</g>
<!-- .TL12 -->
<g id="node26" class="node">
<title>.TL12</title>
<polygon fill="none" stroke="black" points="286,-651.5 286,-720.5 340,-720.5 340,-651.5 286,-651.5"/>
<text text-anchor="middle" x="313" y="-705.3" font-family="Helvetica,Arial,sans-serif" font-size="14.00">.TL12</text>
<polyline fill="none" stroke="black" points="286,-697.5 340,-697.5"/>
<text text-anchor="middle" x="313" y="-682.3" font-family="Helvetica,Arial,sans-serif" font-size="14.00">subl</text>
<polyline fill="none" stroke="black" points="286,-674.5 340,-674.5"/>
<text text-anchor="middle" x="313" y="-659.3" font-family="Helvetica,Arial,sans-serif" font-size="14.00"> </text>
</g>
<!-- .L19&#45;&gt;.TL12 -->
<g id="1" class="edge">
<title>.L19:f2&#45;&gt;.TL12:f0</title>
<path fill="none" stroke="black" d="M251,-718C262.54,-718 267.28,-713.35 274.99,-710.74"/>
<polygon fill="black" stroke="black" points="275.17,-714.25 284.5,-709.24 274.08,-707.34 275.17,-714.25"/>
</g>
<!-- .L21 -->
<g id="node27" class="node">
<title>.L21</title>
<polygon fill="none" stroke="black" points="376,-683.5 376,-752.5 430,-752.5 430,-683.5 376,-683.5"/>
<text text-anchor="middle" x="403" y="-737.3" font-family="Helvetica,Arial,sans-serif" font-size="14.00">.L21</text>
<polyline fill="none" stroke="black" points="376,-729.5 430,-729.5"/>
<text text-anchor="middle" x="403" y="-714.3" font-family="Helvetica,Arial,sans-serif" font-size="14.00">movl</text>
<polyline fill="none" stroke="black" points="376,-706.5 430,-706.5"/>
<text text-anchor="middle" x="403" y="-691.3" font-family="Helvetica,Arial,sans-serif" font-size="14.00"> </text>
</g>
<!-- .L20&#45;&gt;.L21 -->
<g id="1" class="edge">
<title>.L20:f1&#45;&gt;.L21:f0</title>
<path fill="none" stroke="black" d="M340,-774C356.96,-774 356.14,-753.86 365.33,-745.05"/>
<polygon fill="black" stroke="black" points="366.47,-748.35 374.58,-741.54 363.99,-741.81 366.47,-748.35"/>
</g>
<!-- .TL12&#45;&gt;.L21 -->
<g id="1" class="edge">
<title>.TL12:f1&#45;&gt;.L21:f0</title>
<path fill="none" stroke="black" d="M340,-686C364.42,-686 352.75,-724.43 365.33,-737.04"/>
<polygon fill="black" stroke="black" points="363.99,-740.28 374.58,-740.47 366.42,-733.71 363.99,-740.28"/>
</g>
</g>
</svg>
